<?xml version="1.0" encoding="utf-8"?>
<!-- Generator: Adobe Illustrator 25.1.0, SVG Export Plug-In . SVG Version: 6.00 Build 0)  -->
<svg version="1.1" id="Layer_1" xmlns="http://www.w3.org/2000/svg" xmlns:xlink="http://www.w3.org/1999/xlink" x="0px" y="0px"
	 viewBox="0 0 24 24" style="enable-background:new 0 0 24 24;" xml:space="preserve">
<style type="text/css">
	.st0{fill:#F3BCB8;}
</style>
<path class="st0" d="M11.9,15.5L7,10.6c-0.5-0.5-0.5-1.3,0-1.8l0,0c0.5-0.5,1.3-0.5,1.8,0l4.9,4.9c0.5,0.5,0.5,1.3,0,1.8l0,0
	C13.2,16,12.4,16,11.9,15.5z"/>
<path class="st0" d="M11.9,13.8l4.9-4.9c0.5-0.5,1.3-0.5,1.8,0l0,0c0.5,0.5,0.5,1.3,0,1.8l-4.9,4.9c-0.5,0.5-1.3,0.5-1.8,0l0,0
	C11.4,15,11.4,14.2,11.9,13.8z"/>
</svg>
